<?xml version="1.0" standalone="no"?>
<!DOCTYPE svg PUBLIC "-//W3C//DTD SVG 20010904//EN"
 "http://www.w3.org/TR/2001/REC-SVG-20010904/DTD/svg10.dtd">
<svg version="1.0" xmlns="http://www.w3.org/2000/svg"
 width="500.000000pt" height="500.000000pt" viewBox="0 0 500.000000 500.000000"
 preserveAspectRatio="xMidYMid meet">

<g transform="translate(0.000000,500.000000) scale(0.100000,-0.100000)"
fill="#000000" stroke="none">
<path d="M2455 3849 c-296 -37 -570 -229 -698 -491 -82 -168 -112 -317 -104
-518 11 -269 93 -472 261 -649 185 -193 467 -298 746 -277 273 21 479 86 593
186 l47 42 0 357 0 357 83 33 c110 45 213 101 325 178 50 34 92 62 92 61 0 -2
-9 -32 -20 -66 -22 -70 -26 -127 -9 -137 23 -15 59 7 85 52 37 61 84 223 84
285 0 55 -11 83 -39 97 -28 15 -362 62 -391 54 -36 -9 -60 -33 -60 -60 0 -32
47 -59 140 -79 41 -9 88 -19 104 -23 l30 -7 -74 -58 c-146 -114 -348 -214
-452 -223 -36 -4 -58 -10 -58 -18 0 -14 -114 -40 -250 -56 -110 -13 -324 -5
-445 17 -169 30 -155 30 -155 1 0 -23 9 -28 88 -57 209 -76 500 -93 735 -44
l28 6 -3 -269 -3 -268 -27 -51 c-54 -102 -212 -211 -363 -249 -234 -59 -474 4
-656 172 -117 109 -207 267 -256 451 -24 89 -27 113 -26 287 0 172 2 199 26
287 97 365 337 597 664 640 193 26 406 -40 557 -173 59 -53 118 -140 136 -203
14 -49 23 -55 57 -31 38 26 48 82 28 150 -58 200 -447 340 -820 294z"/>
<path d="M4403 2663 c-21 -8 -15 -27 17 -58 18 -17 29 -37 28 -49 -2 -14 4
-22 22 -26 15 -3 31 -18 40 -37 8 -17 25 -36 38 -42 31 -15 28 -28 -15 -50
-21 -11 -65 -38 -98 -60 -33 -23 -66 -41 -72 -41 -7 0 -27 9 -45 20 -65 39
-98 17 -49 -34 17 -18 31 -41 31 -53 0 -11 6 -23 14 -26 7 -3 18 -26 25 -51 6
-25 15 -46 19 -46 19 0 32 27 32 64 0 23 4 46 8 52 12 19 221 113 228 103 3
-6 3 -21 0 -34 -4 -14 -1 -25 8 -28 17 -7 27 -57 15 -79 -7 -14 -6 -18 5 -18
10 0 21 -20 31 -55 9 -30 20 -55 23 -55 4 0 18 7 30 16 20 14 22 21 16 66 -6
42 -4 53 10 64 21 15 13 54 -10 54 -16 0 -19 45 -3 55 7 5 6 14 -4 28 -31 49
-29 54 32 91 160 98 143 159 -24 82 -78 -36 -99 -34 -107 9 -3 13 -11 19 -25
18 -25 -3 -47 21 -48 51 0 17 -6 21 -32 21 -21 1 -42 10 -61 28 -27 26 -51 32
-79 20z"/>
<path d="M4142 2148 c-32 -20 -42 -38 -22 -38 18 0 70 30 70 40 0 18 -17 18
-48 -2z"/>
<path d="M3903 2038 c-60 -19 -74 -30 -54 -42 15 -10 131 35 131 50 0 17 1 17
-77 -8z"/>
<path d="M3301 1996 c-48 -17 -56 -42 -10 -31 19 4 49 10 68 14 19 3 36 12 39
19 5 16 -51 15 -97 -2z"/>
<path d="M3550 1991 c0 -12 37 -21 93 -21 35 0 47 4 47 15 0 12 -14 15 -70 15
-38 0 -70 -4 -70 -9z"/>
<path d="M3117 1813 c-18 -52 -22 -93 -8 -93 6 0 51 117 51 135 0 3 -6 5 -13
5 -7 0 -21 -21 -30 -47z"/>
<path d="M3070 1538 c0 -18 -3 -50 -6 -70 -5 -30 -3 -38 8 -38 11 0 17 15 22
46 10 73 8 94 -9 94 -10 0 -15 -10 -15 -32z"/>
<path d="M3014 1248 c-9 -18 -25 -44 -35 -57 -18 -23 -17 -41 1 -41 11 0 70
99 70 118 0 23 -19 12 -36 -20z"/>
<path d="M2130 1235 c0 -9 9 -15 24 -15 13 0 44 -3 70 -6 57 -8 63 10 9 25
-56 16 -103 14 -103 -4z"/>
<path d="M1911 1180 c-32 -25 -48 -45 -45 -54 6 -15 34 -11 34 5 0 5 18 21 40
35 22 15 40 33 40 40 0 22 -15 17 -69 -26z"/>
<path d="M2417 1174 c-4 -4 -7 -11 -7 -15 0 -9 129 -53 137 -46 10 11 -8 25
-50 40 -23 8 -49 18 -58 21 -8 4 -18 3 -22 0z"/>
<path d="M2700 1075 c0 -13 12 -15 67 -13 42 2 68 8 71 16 3 9 -15 12 -67 12
-57 0 -71 -3 -71 -15z"/>
<path d="M1786 982 c-11 -18 -35 -125 -30 -133 12 -20 22 -5 38 58 9 39 12 71
7 76 -5 5 -11 5 -15 -1z"/>
<path d="M280 847 c-52 -27 -90 -90 -90 -148 0 -50 32 -133 110 -288 l62 -125
43 82 c63 122 111 231 124 285 36 150 -113 266 -249 194z m126 -112 c54 -54
-19 -132 -79 -84 -32 25 -35 61 -7 89 27 27 56 25 86 -5z"/>
<path d="M1706 629 c-16 -58 -14 -85 4 -74 9 5 17 31 36 108 4 20 2 27 -8 27
-9 0 -21 -22 -32 -61z"/>
<path d="M1585 424 c-11 -8 -37 -20 -57 -26 -38 -11 -53 -38 -20 -38 23 1 98
35 107 50 12 20 -9 30 -30 14z"/>
<path d="M952 393 c-29 -9 -51 -21 -49 -27 5 -14 8 -13 80 3 37 8 57 17 57 27
0 17 -20 17 -88 -3z"/>
<path d="M1196 402 c-9 -15 1 -19 77 -27 45 -5 67 -4 67 3 0 16 -10 20 -77 27
-38 5 -63 4 -67 -3z"/>
<path d="M716 279 c-39 -31 -18 -49 23 -20 17 13 31 27 31 32 0 16 -26 10 -54
-12z"/>
<path d="M250 229 c-74 -13 -124 -39 -128 -66 -11 -79 304 -113 443 -47 99 47
8 111 -170 119 -49 2 -115 0 -145 -6z m255 -40 c74 -35 24 -70 -109 -77 -133
-7 -243 25 -208 60 37 37 252 48 317 17z"/>
<path d="M301 172 c-26 -18 0 -32 57 -32 57 0 93 12 79 26 -11 12 -120 16
-136 6z"/>
</g>
</svg>
